<?xml version="1.0" standalone="no"?>
<!DOCTYPE svg PUBLIC "-//W3C//DTD SVG 20010904//EN"
 "http://www.w3.org/TR/2001/REC-SVG-20010904/DTD/svg10.dtd">
<svg version="1.0" xmlns="http://www.w3.org/2000/svg"
 width="300.000000pt" height="300.000000pt" viewBox="0 0 300.000000 300.000000"
 preserveAspectRatio="xMidYMid meet">
<metadata>
Created by potrace 1.14, written by Peter Selinger 2001-2017
</metadata>
<g transform="translate(0.000000,300.000000) scale(0.100000,-0.100000)"
fill="#000000" stroke="none">
<path d="M1598 2792 c-22 -4 -22 -11 -1 -34 15 -17 15 -18 -14 -18 -42 0 -121
-29 -170 -62 -53 -36 -60 -48 -34 -55 25 -6 27 -16 5 -34 -44 -36 -60 -133
-38 -236 13 -64 52 -153 79 -179 8 -9 15 -25 16 -37 7 -178 7 -197 -4 -205 -7
-6 -99 -49 -206 -96 -106 -47 -202 -92 -211 -101 -27 -24 -78 -135 -91 -196
-6 -30 -24 -83 -41 -118 -16 -35 -36 -81 -44 -102 -9 -21 -27 -45 -40 -54 -18
-12 -24 -24 -24 -54 0 -21 -6 -51 -14 -67 -52 -106 -86 -191 -86 -217 0 -29
44 -127 81 -179 17 -23 19 -46 19 -207 0 -100 -3 -180 -8 -180 -39 6 -53 -13
-60 -80 -1 -8 -8 -11 -18 -7 -9 3 -12 2 -9 -5 4 -6 13 -8 20 -5 8 3 19 -2 25
-10 11 -12 135 -14 866 -14 578 0 861 3 876 11 20 8 23 16 20 49 -5 46 -20 62
-62 64 l-30 1 0 131 0 131 73 46 c114 72 129 90 126 156 -3 65 -32 183 -82
328 -50 144 -191 489 -225 549 -8 16 -78 48 -241 114 l-229 91 -7 42 c-4 23
-9 51 -11 62 -2 11 -5 39 -6 62 -1 37 4 47 40 85 23 24 42 48 42 53 0 6 14 33
31 60 20 32 32 64 34 94 2 25 3 49 4 53 1 3 16 4 34 2 27 -4 30 -3 15 8 -9 7
-24 18 -34 24 -16 9 -17 15 -7 37 12 26 11 27 -16 27 -23 0 -34 9 -60 52 -45
72 -120 161 -159 188 -33 23 -93 39 -124 32z"/>
<path d="M360 2716 c-54 -13 -59 -35 -13 -56 26 -12 33 -21 33 -45 0 -28 -4
-31 -60 -48 -49 -14 -73 -30 -130 -83 -90 -85 -130 -162 -131 -251 -1 -34 2
-66 6 -72 3 -6 8 -20 10 -32 10 -49 111 -165 153 -174 9 -2 33 -9 52 -14 48
-15 111 -14 162 3 24 8 65 13 91 12 27 -1 51 2 53 6 3 4 -9 8 -25 8 -17 0 -31
3 -31 6 0 14 84 92 93 87 6 -3 7 -1 3 6 -4 6 0 34 9 61 9 27 16 67 17 89 0 37
3 40 32 44 l31 4 -31 1 c-28 2 -33 7 -44 47 -7 24 -23 59 -36 77 l-24 32 22
25 22 26 -23 -22 -24 -22 -44 34 c-25 19 -60 39 -78 45 -19 6 -36 19 -38 28
-4 13 -5 13 -6 2 -1 -12 -16 -15 -64 -16 -38 -1 -77 -8 -96 -19 -47 -24 -48
-13 -3 18 158 104 367 44 448 -128 13 -27 24 -44 24 -37 0 7 -11 35 -25 61
-33 66 -105 126 -177 147 -55 17 -58 19 -58 51 0 26 5 34 25 39 40 10 50 30
23 47 -32 21 -94 26 -148 13z"/>
<path d="M723 2272 c-1 -61 -6 -84 -32 -137 -19 -38 -49 -79 -73 -100 -23 -19
-37 -35 -31 -35 20 0 99 96 120 145 23 54 34 134 23 175 -4 14 -7 -6 -7 -48z"/>
<path d="M550 1990 c-9 -6 -10 -10 -3 -10 6 0 15 5 18 10 8 12 4 12 -15 0z"/>
<path d="M20 1960 c0 -5 7 -7 15 -4 8 4 15 8 15 10 0 2 -7 4 -15 4 -8 0 -15
-4 -15 -10z"/>
<path d="M60 1959 c0 -5 5 -7 10 -4 6 3 10 8 10 11 0 2 -4 4 -10 4 -5 0 -10
-5 -10 -11z"/>
<path d="M90 1959 c0 -5 5 -7 10 -4 6 3 10 8 10 11 0 2 -4 4 -10 4 -5 0 -10
-5 -10 -11z"/>
<path d="M120 1963 c0 -5 16 -8 35 -8 19 0 35 3 35 8 0 4 -16 7 -35 7 -19 0
-35 -3 -35 -7z"/>
<path d="M605 1960 c4 -6 11 -8 16 -5 14 9 11 15 -7 15 -8 0 -12 -5 -9 -10z"/>
<path d="M640 1966 c0 -2 7 -6 15 -10 8 -3 15 -1 15 4 0 6 -7 10 -15 10 -8 0
-15 -2 -15 -4z"/>
<path d="M700 1959 c0 -5 5 -7 10 -4 6 3 10 8 10 11 0 2 -4 4 -10 4 -5 0 -10
-5 -10 -11z"/>
<path d="M730 1959 c0 -5 5 -7 10 -4 6 3 10 8 10 11 0 2 -4 4 -10 4 -5 0 -10
-5 -10 -11z"/>
<path d="M760 1959 c0 -5 5 -7 10 -4 6 3 10 8 10 11 0 2 -4 4 -10 4 -5 0 -10
-5 -10 -11z"/>
<path d="M820 1960 c0 -5 7 -7 15 -4 8 4 15 8 15 10 0 2 -7 4 -15 4 -8 0 -15
-4 -15 -10z"/>
<path d="M372 779 c-9 -11 -27 -32 -39 -47 -12 -14 -36 -53 -53 -87 -51 -100
-39 -200 28 -242 15 -10 29 -20 32 -23 13 -14 127 -3 157 15 42 25 70 85 68
141 -3 46 -41 135 -76 175 -85 99 -89 101 -117 68z"/>
<path d="M2804 778 c-143 -163 -161 -317 -44 -389 35 -21 129 -17 170 7 77 45
90 158 30 258 -37 61 -111 146 -126 146 -6 0 -19 -10 -30 -22z"/>
<path d="M341 323 c-1 -7 -10 -13 -21 -13 -17 0 -20 -7 -20 -42 0 -24 4 -48 8
-53 6 -9 48 -12 88 -6 6 0 12 24 13 51 1 49 1 50 -28 50 -16 0 -32 6 -34 13
-4 10 -6 10 -6 0z"/>
<path d="M2757 312 c-23 -3 -27 -7 -21 -24 5 -17 3 -20 -12 -14 -17 7 -17 6
-1 -12 10 -11 17 -23 16 -28 -4 -24 5 -29 50 -30 48 -1 49 0 53 30 8 72 -8 87
-85 78z"/>
<path d="M2901 274 c0 -11 3 -14 6 -6 3 7 2 16 -1 19 -3 4 -6 -2 -5 -13z"/>
<path d="M270 270 c0 -5 5 -10 11 -10 5 0 7 5 4 10 -3 6 -8 10 -11 10 -2 0 -4
-4 -4 -10z"/>
<path d="M426 272 c-3 -5 1 -9 9 -9 8 0 12 4 9 9 -3 4 -7 8 -9 8 -2 0 -6 -4
-9 -8z"/>
<path d="M517 269 c7 -7 15 -10 18 -7 3 3 -2 9 -12 12 -14 6 -15 5 -6 -5z"/>
<path d="M557 269 c7 -7 15 -10 18 -7 3 3 -2 9 -12 12 -14 6 -15 5 -6 -5z"/>
<path d="M597 269 c7 -7 15 -10 18 -7 3 3 -2 9 -12 12 -14 6 -15 5 -6 -5z"/>
<path d="M634 272 c4 -3 14 -7 22 -8 9 -1 13 0 10 4 -4 3 -14 7 -22 8 -9 1
-13 0 -10 -4z"/>
<path d="M2517 269 c7 -7 15 -10 18 -7 3 3 -2 9 -12 12 -14 6 -15 5 -6 -5z"/>
<path d="M2557 269 c7 -7 15 -10 18 -7 3 3 -2 9 -12 12 -14 6 -15 5 -6 -5z"/>
<path d="M2597 269 c7 -7 15 -10 18 -7 3 3 -2 9 -12 12 -14 6 -15 5 -6 -5z"/>
<path d="M2637 269 c7 -7 15 -10 18 -7 3 3 -2 9 -12 12 -14 6 -15 5 -6 -5z"/>
<path d="M2677 269 c7 -7 15 -10 18 -7 3 3 -2 9 -12 12 -14 6 -15 5 -6 -5z"/>
<path d="M2867 269 c7 -7 15 -10 18 -7 3 3 -2 9 -12 12 -14 6 -15 5 -6 -5z"/>
<path d="M2926 272 c-3 -5 1 -9 9 -9 8 0 12 4 9 9 -3 4 -7 8 -9 8 -2 0 -6 -4
-9 -8z"/>
</g>
</svg>
